<svg width="437" height="413" viewBox="0 0 437 413" fill="none" xmlns="http://www.w3.org/2000/svg">
<path d="M32.7071 7.70709L36.9497 3.46445L32.7071 7.70709ZM230.293 205.293L226.05 209.536L230.293 205.293ZM231.707 205.293L235.95 209.536L235.95 209.536L231.707 205.293ZM429.293 7.7071L425.05 3.46442L425.05 3.46446L429.293 7.7071ZM429.293 404.793L433.536 400.55L433.536 400.55L429.293 404.793ZM234.743 201.757C232.399 199.414 228.601 199.414 226.257 201.757C223.914 204.1 223.914 207.899 226.257 210.243L234.743 201.757ZM154.02 6.50184L154.041 0.501878L154.02 6.50184ZM154.02 406.498L154.001 400.498L154.001 400.498L154.02 406.498ZM25 406C25 409.314 27.6863 412 31 412C34.3137 412 37 409.314 37 406L25 406ZM37 181.5V8.41419H25V181.5H37ZM28.4645 11.9497L226.05 209.536L234.536 201.05L36.9497 3.46445L28.4645 11.9497ZM235.95 209.536L433.536 11.9497L425.05 3.46446L227.464 201.05L235.95 209.536ZM425 8.4142V404.086H437V8.4142H425ZM433.536 400.55L234.743 201.757L226.257 210.243L425.05 409.036L433.536 400.55ZM425 404.086C425 399.631 430.386 397.4 433.536 400.55L425.05 409.036C429.46 413.445 437 410.322 437 404.086H425ZM433.535 11.9498C430.386 15.0994 425 12.8689 425 8.4142H437C437 2.17767 429.46 -0.945135 425.05 3.46442L433.535 11.9498ZM226.05 209.536C228.784 212.269 233.216 212.269 235.95 209.536L227.464 201.05C229.417 199.098 232.583 199.098 234.536 201.05L226.05 209.536ZM37 8.41419C37 12.8688 31.6143 15.0995 28.4645 11.9497L36.9497 3.46445C32.54 -0.945268 25 2.17781 25 8.41419H37ZM50 206.5C50 216.993 41.4934 225.5 31 225.5V237.5C48.1208 237.5 62 223.621 62 206.5H50ZM31 225.5C20.5066 225.5 12 216.993 12 206.5H0C0 223.621 13.8792 237.5 31 237.5V225.5ZM12 206.5C12 196.007 20.5066 187.5 31 187.5V175.5C13.8792 175.5 0 189.379 0 206.5H12ZM31 187.5C41.4934 187.5 50 196.007 50 206.5H62C62 189.379 48.1208 175.5 31 175.5V187.5ZM159 405.5V7.49998H147V405.5H159ZM153.998 12.5018C227.248 12.7686 275.243 42.4023 305.078 81.2288C335.098 120.296 347 169.053 347 207.5H359C359 166.925 346.513 115.457 314.593 73.9172C282.488 32.1368 230.992 0.782131 154.041 0.501878L153.998 12.5018ZM347 207.5C347 255.248 335.016 303.364 305.207 339.49C275.562 375.416 227.638 400.275 154.001 400.498L154.038 412.498C230.603 412.266 282.168 386.265 314.463 347.127C346.594 308.187 359 257.032 359 207.5H347ZM159 7.49998C159 10.4062 156.63 12.5114 153.998 12.5018L154.041 0.501878C150.305 0.488269 147 3.48915 147 7.49998H159ZM147 405.5C147 409.512 150.306 412.51 154.038 412.498L154.001 400.498C156.629 400.49 159 402.592 159 405.5H147ZM25 225L25 406L37 406L37 225L25 225Z" fill="black"/>
</svg>
