<svg width="435" height="411" viewBox="0 0 435 411" fill="none" xmlns="http://www.w3.org/2000/svg">
<path d="M31.7071 6.70709L35.2426 3.17156L31.7071 6.70709ZM229.293 204.293L225.757 207.828L229.293 204.293ZM230.707 204.293L234.243 207.828L234.243 207.828L230.707 204.293ZM428.293 6.7071L424.757 3.17154L424.757 3.17156L428.293 6.7071ZM428.293 403.793L431.828 400.257L431.828 400.257L428.293 403.793ZM233.036 201.464C231.083 199.512 227.917 199.512 225.964 201.464C224.012 203.417 224.012 206.583 225.964 208.536L233.036 201.464ZM153.02 5.50184L153.038 0.501871L153.02 5.50184ZM153.02 405.498L153.004 400.498L153.004 400.498L153.02 405.498ZM25 405C25 407.761 27.2386 410 30 410C32.7614 410 35 407.761 35 405L25 405ZM35 180.5V7.41419H25V180.5H35ZM28.1716 10.2426L225.757 207.828L232.828 200.757L35.2426 3.17156L28.1716 10.2426ZM234.243 207.828L431.828 10.2426L424.757 3.17156L227.172 200.757L234.243 207.828ZM425 7.4142V403.086H435V7.4142H425ZM431.828 400.257L233.036 201.464L225.964 208.536L424.757 407.328L431.828 400.257ZM425 403.086C425 399.522 429.308 397.737 431.828 400.257L424.757 407.328C428.537 411.108 435 408.431 435 403.086H425ZM431.828 10.2427C429.309 12.7624 425 10.978 425 7.4142H435C435 2.06861 428.537 -0.608091 424.757 3.17154L431.828 10.2427ZM225.757 207.828C228.101 210.172 231.9 210.172 234.243 207.828L227.172 200.757C228.734 199.195 231.266 199.195 232.828 200.757L225.757 207.828ZM35 7.41419C35 10.9779 30.6914 12.7625 28.1716 10.2426L35.2426 3.17156C31.4629 -0.608203 25 2.06872 25 7.41419H35ZM50 205.5C50 216.546 41.0457 225.5 30 225.5V235.5C46.5685 235.5 60 222.069 60 205.5H50ZM30 225.5C18.9543 225.5 10 216.546 10 205.5H0C0 222.069 13.4315 235.5 30 235.5V225.5ZM10 205.5C10 194.454 18.9543 185.5 30 185.5V175.5C13.4315 175.5 0 188.931 0 205.5H10ZM30 185.5C41.0457 185.5 50 194.454 50 205.5H60C60 188.931 46.5685 175.5 30 175.5V185.5ZM157 404.5V6.49998H147V404.5H157ZM153.001 10.5018C226.56 10.7697 274.846 40.5468 304.871 79.6195C335.049 118.893 347 167.876 347 206.5H357C357 166.102 344.561 114.86 312.8 73.5265C280.884 31.9922 229.68 0.781001 153.038 0.501871L153.001 10.5018ZM347 206.5C347 254.397 334.981 302.766 304.979 339.126C275.113 375.321 226.885 400.274 153.004 400.498L153.035 410.498C229.356 410.267 280.618 384.361 312.692 345.491C344.629 306.786 357 255.884 357 206.5H347ZM157 6.49998C157 8.82982 155.103 10.5095 153.001 10.5018L153.038 0.501871C149.832 0.490195 147 3.06558 147 6.49998H157ZM147 404.5C147 407.936 149.833 410.508 153.035 410.498L153.004 400.498C155.102 400.492 157 402.169 157 404.5H147ZM25 224L25 405L35 405L35 224L25 224Z" fill="white"/>
</svg>
